<svg x-show="selectedCurrency == 'AUD'" width="12" height="12" viewBox="0 0 12 12" fill="none" xmlns="http://www.w3.org/2000/svg" style="display: none;">
    <mask id="mask0_1109_4722" style="mask-type:alpha" maskUnits="userSpaceOnUse" x="0" y="0" width="12" height="12">
        <circle cx="6" cy="6" r="6" fill="#C4C4C4"></circle>
    </mask>
    <g mask="url(#mask0_1109_4722)">
        <path d="M16.0296 -0.352783H-8.67578V11.9999H16.0296V-0.352783Z" fill="#00008B"></path>
        <path d="M-8.67578 -0.352783L3.67692 5.82357L-8.67578 -0.352783ZM3.67692 -0.352783L-8.67578 5.82357Z" fill="black"></path>
        <path d="M3.3527 6.47107L-2.49997 3.54483L-8.35264 6.47107L-9 5.17635L-4.11837 2.73553L-9 0.294718L-8.35264 -1L-2.49997 1.92643L3.3527 -1L4.00006 0.294718L-0.881572 2.73553L4.00006 5.17635L3.3527 6.47107Z" fill="white"></path>
        <path d="M-2.49943 -0.352783V6.8529V-0.352783ZM-8.67578 2.73539H5.73577Z" fill="black"></path>
        <path d="M-1.53437 6.85309H-3.46448V3.70045H-8.67578V1.77034H-3.46448V-0.352783H-1.53437V1.77034H5.73577V3.70045H-1.53437V6.85309Z" fill="white"></path>
        <path d="M-2.49943 -0.352783V6.25784V-0.352783ZM-8.67578 2.73539H4.1112Z" fill="black"></path>
        <path d="M-1.9204 6.25784H-3.07846V3.31443H-8.67578V2.15636H-3.07846V-0.352783H-1.9204V2.15636H4.1112V3.31443H-1.9204V6.25784Z" fill="#FF0000"></path>
        <path d="M-8.67578 5.82357H3.67692V-0.352783H7.79443V7.88242H-8.67578V5.82357Z" fill="#00008B"></path>
        <path d="M9.85439 9.05933L10.0244 9.58779L10.5442 9.39092L10.2367 9.85415L10.7146 10.1379L10.1609 10.1861L10.2381 10.7366L9.85439 10.3338L9.47165 10.7366L9.5477 10.1861L8.99414 10.1381L9.47204 9.85434L9.16457 9.39111L9.68415 9.58779L9.85439 9.05933Z" fill="white"></path>
        <path d="M6.76845 4.16968L6.9385 4.69872L7.45827 4.50185L7.15081 4.96508L7.6287 5.24861L7.07495 5.29686L7.15216 5.84733L6.76845 5.44413L6.38571 5.84694L6.46176 5.29648L5.9082 5.24822L6.3861 4.96469L6.07863 4.50146L6.59822 4.69833L6.76845 4.16968Z" fill="white"></path>
        <path d="M9.85439 0.824707L10.0244 1.35375L10.5442 1.15688L10.2367 1.62011L10.7146 1.90364L10.1609 1.95189L10.2381 2.50217L9.85439 2.09858L9.47165 2.50139L9.5477 1.95112L8.99414 1.90287L9.47204 1.61933L9.16457 1.15611L9.68415 1.35298L9.85439 0.824707Z" fill="white"></path>
        <path d="M12.5995 3.34546L12.769 3.87392L13.2886 3.67705L12.9811 4.14028L13.459 4.424L12.9062 4.47226L12.9834 5.02272L12.6005 4.61991L12.2177 5.02272L12.294 4.47226L11.7402 4.4242L12.2181 4.14047L11.9107 3.67724L12.4304 3.87412L12.5995 3.34546Z" fill="white"></path>
        <path d="M11.0891 5.82373L11.2242 6.15339L11.5791 6.17945L11.3072 6.40913L11.3921 6.75482L11.0891 6.56721L10.7866 6.75482L10.8716 6.40913L10.5996 6.17945L10.9546 6.15339L11.0891 5.82373Z" fill="white"></path>
        <path d="M3.67593 5.82356L-0.570312 3.70044H0.292833" fill="#FF0000"></path>
        <path d="M2.81265 -0.352783L-1.43359 1.77034H-0.570449L3.67579 -0.352783H2.81265Z" fill="#FF0000"></path>
        <path d="M0.292969 3.70044L3.67607 5.39199V5.82356" fill="#FF0000"></path>
    </g>
</svg>